<!--?xml version="1.0" standalone="no"?-->

<svg version="1.0" xmlns="http://www.w3.org/2000/svg" width="246.000000pt" height="300.000000pt" viewBox="0 0 246.000000 300.000000" preserveAspectRatio="xMidYMid meet">
<g transform="translate(0.000000,300.000000) scale(0.100000,-0.100000)" fill="#323232" stroke="none">
<path class="node" id="node1" d="M223 2830 c-26 -11 -30 -43 -11 -87 19 -41 38 -52 91 -53 44 0 49 3
68 35 l21 36 17 -33 c14 -29 22 -33 60 -36 72 -5 111 29 111 97 0 24 -6 31
-31 40 -41 14 -96 14 -105 0 -4 -8 -25 -9 -63 -5 -119 15 -137 15 -158 6z
m129 -55 c10 -22 8 -28 -10 -45 -12 -11 -35 -20 -51 -20 -24 0 -34 7 -47 32
-15 30 -15 32 2 45 10 7 35 13 56 13 31 0 41 -5 50 -25z m186 1 c2 -10 -2 -29
-9 -42 -25 -47 -98 -23 -99 32 0 30 9 35 60 32 35 -2 46 -7 48 -22z"></path>
<path class="node" id="node2" d="M783 2828 c-34 -16 -32 -77 3 -112 50 -49 154 -25 154 36 0 10 5 18
10 18 6 0 10 -11 10 -24 0 -33 35 -56 85 -56 43 1 75 18 75 42 0 8 4 18 9 24
5 5 11 20 13 34 6 46 -70 64 -151 35 -38 -13 -47 -13 -78 0 -41 17 -98 18
-130 3z m125 -52 c2 -10 -2 -30 -9 -43 -27 -50 -116 -2 -96 51 10 26 100 19
105 -8z m190 -4 c7 -48 -59 -82 -94 -48 -15 15 -19 58 -7 70 4 4 28 6 53 4 38
-3 45 -6 48 -26z"></path>
<path class="node" id="node3" d="M1343 2830 c-17 -7 -23 -18 -23 -39 0 -16 5 -33 10 -36 6 -3 10 -13
10 -22 0 -25 31 -42 75 -43 50 0 85 23 85 56 0 13 5 24 10 24 6 0 10 -8 10
-18 0 -61 104 -85 154 -36 36 37 37 96 1 112 -35 16 -85 15 -128 -3 -31 -13
-40 -13 -78 0 -46 17 -93 18 -126 5z m125 -63 c4 -34 -18 -57 -54 -57 -30 0
-53 24 -54 56 0 30 9 35 60 32 41 -3 45 -6 48 -31z m189 16 c10 -26 -19 -68
-51 -71 -31 -4 -55 20 -56 54 0 29 8 34 57 34 31 0 45 -5 50 -17z"></path>
<path class="node" id="node4" d="M1903 2828 c-37 -18 -27 -92 16 -125 9 -7 37 -13 62 -13 49 0 79 20
80 56 0 19 0 19 12 0 27 -44 47 -56 90 -56 61 1 97 38 97 100 0 24 -6 33 -26
40 -34 13 -91 13 -117 -2 -26 -13 -86 -13 -101 2 -13 13 -85 12 -113 -2z m125
-61 c4 -34 -18 -57 -56 -57 -23 0 -32 6 -42 30 -20 47 -8 62 47 58 44 -3 48
-5 51 -31z m186 20 c17 -13 17 -15 2 -45 -13 -25 -23 -32 -47 -32 -16 0 -39 9
-51 20 -18 17 -20 23 -10 45 9 20 19 25 50 25 21 0 46 -6 56 -13z"></path>
<path class="node" id="node5" d="M180 2638 c1 -128 51 -244 124 -289 37 -23 124 -26 164 -5 81 42 132
159 132 304 0 54 -14 53 -39 -3 -18 -40 -23 -45 -52 -45 -20 0 -42 9 -56 22
-29 27 -97 26 -128 -1 -25 -23 -57 -31 -77 -20 -8 4 -23 29 -33 54 -11 25 -23
45 -27 45 -4 0 -8 -28 -8 -62z m275 -82 c28 -12 29 -13 10 -23 -26 -14 -152
-10 -167 5 -8 8 -8 13 3 16 54 18 115 19 154 2z"></path>
<path class="node" id="node6" d="M1121 2645 c-13 -31 -28 -58 -33 -61 -4 -3 -23 11 -42 30 -31 34 -37
36 -96 36 -59 0 -64 -2 -97 -37 -33 -37 -35 -37 -49 -19 -8 11 -14 25 -14 32
0 6 -7 14 -15 18 -8 3 -15 15 -15 26 0 11 -4 20 -10 20 -14 0 -13 -128 1 -171
23 -71 43 -105 86 -146 43 -41 48 -43 105 -43 67 0 104 16 142 61 41 49 64
109 75 197 16 124 0 146 -38 57z m-133 -59 c15 -8 35 -17 45 -20 24 -8 21 -25
-5 -35 -34 -13 -157 -6 -171 9 -8 8 -8 14 -2 16 6 3 26 13 45 24 43 23 55 24
88 6z"></path>
<path class="node" id="node7" d="M1296 2685 c-9 -25 14 -176 34 -221 25 -53 64 -101 101 -119 15 -8
55 -15 87 -15 57 0 62 2 105 43 43 41 63 75 86 146 14 43 15 171 1 171 -5 0
-10 -7 -10 -14 0 -8 -15 -37 -32 -63 -27 -39 -33 -44 -36 -28 -7 38 -20 42
-120 42 -102 0 -112 -4 -112 -46 0 -23 -1 -23 -19 -7 -10 9 -29 41 -42 71 -25
57 -33 65 -43 40z m282 -127 l-3 -33 -59 0 c-62 0 -86 16 -73 49 5 12 20 16
72 16 l66 0 -3 -32z"></path>
<path class="node" id="node8" d="M2238 2640 c-28 -63 -42 -73 -53 -40 -13 41 -33 50 -115 50 -84 0
-110 -12 -110 -51 0 -37 -29 -18 -55 36 -38 77 -49 71 -42 -23 14 -185 86
-282 208 -282 66 0 108 24 152 87 28 39 36 65 57 176 9 48 4 107 -9 107 -3 -1
-18 -28 -33 -60z m-102 -67 c23 -17 32 -29 25 -36 -15 -15 -147 -17 -166 -3
-16 11 -14 15 15 39 41 35 81 35 126 0z"></path>
<path class="node" id="node9" d="M238 2228 c-34 -9 -38 -13 -38 -43 0 -17 10 -47 23 -66 19 -29 30
-34 66 -37 47 -4 75 14 94 58 10 24 11 24 14 4 7 -40 46 -66 94 -62 36 3 47 8
66 37 13 19 23 47 23 63 0 24 -6 32 -35 44 -38 16 -81 18 -89 5 -11 -17 -78
-20 -120 -6 -46 17 -47 17 -98 3z m115 -60 c15 -54 -75 -82 -107 -34 -26 40
-12 56 49 56 46 0 53 -3 58 -22z m184 6 c3 -8 1 -26 -5 -40 -9 -18 -19 -24
-45 -24 -40 0 -57 15 -57 52 0 27 2 28 50 28 37 0 52 -4 57 -16z"></path>
<path class="node" id="node10" d="M800 2227 c-47 -16 -54 -62 -15 -113 22 -29 32 -34 69 -34 48 0 86
30 86 68 0 12 5 22 10 22 6 0 10 -10 10 -23 0 -13 10 -33 23 -45 45 -42 137
-21 137 31 0 9 5 17 10 17 6 0 10 16 10 35 0 29 -4 36 -27 42 -39 9 -81 8
-130 -6 -34 -9 -51 -8 -85 4 -51 17 -53 17 -98 2z m113 -56 c8 -32 -20 -61
-59 -61 -28 0 -36 5 -45 27 -16 42 -5 53 50 53 40 0 50 -4 54 -19z m184 3 c3
-8 1 -26 -5 -40 -9 -18 -19 -24 -45 -24 -40 0 -57 15 -57 52 0 27 2 28 50 28
37 0 52 -4 57 -16z"></path>
<path class="node" id="node11" d="M1385 2235 c-5 -2 -22 -6 -37 -9 -23 -5 -28 -12 -28 -36 0 -16 5 -32
10 -35 6 -3 10 -14 10 -24 0 -51 98 -71 138 -28 12 13 22 33 22 45 0 12 5 22
10 22 6 0 10 -10 10 -23 0 -37 40 -67 87 -67 55 0 96 44 91 99 -3 32 -7 37
-43 49 -34 11 -48 11 -90 -2 -39 -12 -59 -13 -90 -5 -59 15 -79 19 -90 14z
m85 -73 c0 -37 -17 -52 -57 -52 -26 0 -36 6 -45 24 -18 41 -5 56 52 56 48 0
50 -1 50 -28z m187 12 c3 -8 1 -26 -5 -40 -24 -51 -119 -18 -105 37 4 15 14
19 54 19 36 0 51 -4 56 -16z"></path>
<path class="node" id="node12" d="M1920 2227 c-45 -15 -52 -56 -18 -107 20 -30 30 -35 67 -38 48 -4 87
22 94 62 3 21 4 21 12 1 18 -44 47 -65 91 -65 37 0 47 5 68 33 17 22 26 47 26
69 0 34 -2 36 -45 47 -37 9 -54 9 -89 -3 -44 -15 -111 -12 -122 5 -7 12 -42
10 -84 -4z m110 -65 c0 -37 -17 -52 -57 -52 -26 0 -36 6 -45 24 -18 41 -5 56
52 56 48 0 50 -1 50 -28z m196 13 c4 -8 -1 -26 -10 -40 -32 -49 -124 -21 -109
33 5 19 12 22 59 22 40 0 56 -4 60 -15z"></path>
<path class="node" id="node13" d="M180 2055 c0 -19 5 -35 10 -35 6 0 10 -15 10 -32 0 -33 25 -83 58
-118 61 -64 152 -79 218 -34 70 48 95 93 118 209 l6 30 -21 -28 c-16 -20 -26
-26 -42 -21 -18 6 -19 3 -14 -25 6 -28 4 -31 -18 -31 -14 0 -33 8 -43 18 -24
24 -50 34 -57 22 -3 -6 -15 -6 -29 0 -19 7 -28 4 -47 -16 -13 -14 -34 -24 -51
-24 -30 0 -35 9 -17 27 17 17 1 33 -32 33 -26 0 -29 3 -29 30 0 17 -4 30 -10
30 -5 0 -10 -16 -10 -35z m331 -143 c-11 -16 -37 -37 -57 -47 -34 -16 -36 -16
-49 1 -11 16 -14 17 -29 2 -21 -22 -51 -13 -93 29 -40 40 -37 51 8 33 25 -11
38 -11 65 -1 27 10 41 10 69 0 29 -11 40 -10 67 3 18 9 35 14 37 12 2 -1 -6
-16 -18 -32z"></path>
<path class="node" id="node14" d="M1148 2084 c-5 -4 -8 -17 -8 -28 0 -12 -7 -30 -15 -40 -8 -11 -15
-26 -15 -34 0 -25 -59 -99 -92 -115 -30 -15 -34 -15 -51 0 -13 13 -20 14 -29
5 -22 -22 -53 -13 -90 26 -37 38 -88 124 -88 148 0 8 -4 14 -10 14 -13 0 -13
-44 -1 -68 5 -9 16 -33 25 -52 15 -37 76 -100 113 -119 54 -27 144 -5 195 50
28 28 58 88 58 112 0 13 5 28 11 34 6 6 9 25 7 43 -2 17 -6 28 -10 24z"></path>
<path class="node" id="node15" d="M1300 2056 c0 -19 5 -38 10 -41 6 -3 10 -17 10 -30 0 -26 30 -85 58
-114 53 -57 142 -77 201 -47 41 22 111 102 118 136 3 17 10 33 14 36 12 7 11
54 -1 54 -5 0 -10 -9 -10 -20 0 -11 -4 -20 -8 -20 -5 0 -16 -18 -26 -40 -19
-44 -68 -98 -100 -110 -14 -5 -27 -3 -38 8 -16 14 -20 14 -36 -1 -16 -15 -21
-15 -46 -1 -33 17 -69 56 -86 93 -7 14 -18 39 -26 54 -8 16 -14 40 -14 53 0
13 -4 24 -10 24 -5 0 -10 -15 -10 -34z"></path>
<path class="node" id="node16" d="M2260 2069 c0 -11 -4 -28 -9 -38 -6 -10 -11 -28 -13 -42 -4 -25 -24
-55 -70 -100 -35 -34 -64 -42 -84 -21 -15 15 -17 14 -29 -1 -10 -14 -18 -15
-38 -8 -30 12 -84 65 -92 92 -4 11 -11 19 -16 19 -5 0 -9 12 -9 28 0 15 -8 36
-17 47 -14 19 -15 17 -10 -30 17 -152 166 -251 277 -184 42 25 86 74 98 109
34 95 42 150 22 150 -5 0 -10 -9 -10 -21z"></path>
<path class="node" id="node17" d="M1440 2006 c-6 -8 -10 -25 -8 -38 3 -22 7 -23 78 -23 71 0 75 1 78
23 6 38 -15 52 -78 52 -38 0 -62 -5 -70 -14z"></path>
<path class="node" id="node18" d="M1923 1995 c-8 -21 22 -42 70 -48 45 -6 70 0 64 17 -2 7 -23 10 -55
8 -52 -4 -63 3 -40 26 9 9 7 12 -10 12 -13 0 -25 -7 -29 -15z"></path>
<path class="node" id="node19" d="M2178 1998 c23 -23 12 -30 -40 -26 -50 3 -77 -13 -43 -25 22 -9 106
9 115 24 12 19 0 39 -23 39 -16 0 -18 -3 -9 -12z"></path>
<path class="node" id="node20" d="M880 1985 c-7 -8 -19 -15 -26 -15 -8 0 -14 -5 -14 -11 0 -7 11 -9 28
-6 48 10 83 27 77 37 -9 15 -51 12 -65 -5z"></path>
<path class="node" id="node21" d="M960 1987 c0 -6 18 -18 40 -25 48 -15 60 -15 60 -2 0 6 -6 10 -14 10
-7 0 -19 7 -26 15 -15 18 -60 20 -60 2z"></path>
<path class="node" id="node22" d="M212 1668 c-29 -29 -2 -120 40 -132 52 -14 80 -6 114 30 22 23 34 30
34 20 0 -9 9 -25 20 -36 23 -23 95 -27 121 -7 37 28 52 100 27 125 -14 14
-124 16 -133 2 -3 -5 -24 -10 -45 -10 -21 0 -42 5 -45 10 -9 14 -119 12 -133
-2z m137 -46 c12 -23 -3 -50 -35 -63 -30 -11 -58 2 -75 33 -10 18 -8 24 7 35
27 20 91 17 103 -5z m189 -9 c4 -27 -28 -61 -54 -58 -38 4 -54 17 -54 44 0 38
7 42 60 39 38 -3 46 -7 48 -25z"></path>
<path class="node" id="node23" d="M772 1668 c-28 -28 -7 -107 34 -128 47 -26 134 8 134 52 0 10 5 18
10 18 6 0 10 -10 10 -23 0 -26 45 -57 83 -57 42 0 77 18 77 39 0 11 4 22 9 25
16 10 19 57 4 72 -17 16 -128 20 -138 4 -3 -5 -24 -10 -45 -10 -21 0 -42 5
-45 10 -9 14 -119 12 -133 -2z m133 -63 c0 -60 -86 -67 -101 -8 -9 35 4 44 54
41 45 -3 47 -4 47 -33z m193 7 c5 -32 -15 -52 -52 -52 -37 0 -56 15 -56 45 0
31 9 36 60 33 38 -3 45 -6 48 -26z"></path>
<path class="node" id="node24" d="M1327 1666 c-15 -15 -12 -62 4 -72 5 -3 9 -14 9 -24 0 -11 9 -24 19
-30 50 -26 141 4 141 47 0 13 5 23 10 23 6 0 10 -8 10 -18 0 -44 87 -78 134
-52 46 24 63 110 27 130 -25 13 -118 13 -126 0 -3 -5 -24 -10 -45 -10 -21 0
-42 5 -45 10 -10 16 -121 12 -138 -4z m141 -54 c5 -32 -15 -52 -52 -52 -37 0
-56 15 -56 45 0 31 9 36 60 33 38 -3 45 -6 48 -26z m189 17 c14 -14 -9 -68
-30 -70 -25 -2 -52 3 -64 13 -14 11 -18 50 -6 61 11 11 88 8 100 -4z"></path>
<path class="node" id="node25" d="M1898 1669 c-30 -17 -23 -75 11 -110 23 -23 39 -29 70 -29 43 0 81
26 81 56 0 10 12 3 34 -20 26 -28 41 -36 69 -36 19 0 43 3 52 6 39 15 62 125
29 138 -26 10 -122 7 -129 -4 -3 -5 -24 -10 -45 -10 -21 0 -42 5 -45 10 -8 13
-105 12 -127 -1z m130 -66 c3 -29 0 -33 -30 -41 -39 -10 -66 3 -74 35 -9 35 4
44 54 41 45 -3 47 -5 50 -35z m186 24 c16 -11 17 -17 7 -36 -16 -29 -56 -44
-81 -31 -28 15 -40 41 -29 62 12 22 76 25 103 5z"></path>
<path class="node" id="node26" d="M180 1498 c0 -59 39 -153 79 -194 123 -124 309 -32 336 166 l7 55
-21 -19 c-11 -11 -21 -25 -21 -33 0 -39 -56 -112 -105 -137 -27 -14 -31 -14
-49 2 -14 12 -20 14 -23 5 -3 -7 -18 -13 -34 -13 -43 0 -109 71 -133 143 -21
63 -36 74 -36 25z"></path>
<path class="node" id="node27" d="M1131 1493 c-31 -88 -63 -104 -112 -57 -42 40 -90 42 -133 3 -22 -19
-44 -29 -57 -27 -21 3 -52 41 -65 81 -10 28 -24 19 -23 -15 1 -69 62 -172 121
-208 39 -24 126 -27 166 -6 57 30 104 97 126 181 21 82 3 121 -23 48z m-106
-108 c22 -2 42 -4 44 -4 11 -2 -28 -36 -54 -47 -25 -11 -33 -10 -48 4 -13 12
-20 13 -29 4 -7 -7 -21 -12 -31 -12 -25 0 -79 39 -71 51 3 5 9 7 13 4 5 -2 28
-1 52 4 24 5 53 7 64 4 11 -2 38 -6 60 -8z"></path>
<path class="node" id="node28" d="M1297 1516 c-7 -17 18 -110 40 -151 22 -41 62 -84 97 -102 38 -20
114 -20 153 1 65 33 133 145 133 217 0 42 -15 36 -40 -16 -12 -25 -26 -48 -32
-51 -5 -4 -23 10 -40 30 -28 35 -32 36 -96 36 -63 0 -68 -2 -104 -37 l-37 -36
-28 61 c-29 64 -37 72 -46 48z m263 -103 c28 -15 50 -30 50 -34 0 -4 -14 -12
-31 -19 -24 -10 -36 -11 -50 -2 -11 7 -20 8 -24 2 -3 -6 -15 -10 -25 -10 -22
0 -70 20 -70 30 0 5 85 57 98 59 1 1 25 -11 52 -26z"></path>
<path class="node" id="node29" d="M2246 1482 c-20 -49 -57 -96 -91 -115 -31 -17 -126 -18 -163 -1 -33
15 -92 86 -92 109 0 15 -28 40 -36 32 -12 -12 18 -116 46 -160 40 -64 97 -99
158 -99 115 0 190 87 209 240 7 56 -7 53 -31 -6z"></path>
<path class="node" id="node30" d="M2186 1501 c-4 -5 -3 -16 0 -25 9 -23 -31 -21 -53 4 -23 24 -106 23
-126 -2 -6 -9 -21 -18 -31 -20 -36 -6 -29 -27 11 -30 72 -6 203 3 203 14 0 6
7 16 17 23 9 7 14 19 10 29 -7 18 -23 21 -31 7z"></path>
<path class="node" id="node31" d="M1920 1487 c0 -21 12 -28 27 -16 19 16 16 29 -7 29 -11 0 -20 -6 -20
-13z"></path>
<path class="node" id="node32" d="M295 1448 c-29 -23 -34 -58 -7 -58 10 0 22 4 28 8 21 18 83 33 101
24 59 -31 74 -35 84 -25 7 7 6 18 -2 36 -14 30 -9 29 -107 32 -59 2 -77 -1
-97 -17z"></path>
<path class="node" id="node33" d="M235 1171 c-25 -5 -31 -12 -33 -37 -2 -17 5 -47 16 -65 17 -31 23
-34 71 -37 58 -3 91 15 91 50 0 10 5 18 10 18 6 0 10 -8 10 -18 0 -33 33 -52
88 -52 48 0 54 3 72 33 22 35 26 92 8 103 -20 13 -125 9 -152 -5 -20 -11 -31
-12 -48 -3 -31 15 -96 22 -133 13z m119 -53 c13 -53 -79 -88 -109 -42 -26 40
-5 64 54 64 42 0 49 -3 55 -22z m184 6 c6 -10 5 -27 -2 -45 -20 -55 -106 -29
-106 33 0 27 2 28 50 28 35 0 52 -5 58 -16z"></path>
<path class="node" id="node34" d="M795 1172 c-26 -6 -30 -12 -33 -45 -2 -26 3 -46 18 -67 19 -27 27
-30 75 -30 45 0 55 4 69 25 9 13 16 31 16 40 0 8 5 15 10 15 6 0 10 -11 10
-23 0 -36 30 -57 81 -57 64 1 99 37 99 104 0 32 -2 34 -42 39 -47 6 -92 1
-126 -16 -17 -8 -28 -8 -41 0 -24 15 -99 23 -136 15z m116 -49 c4 -50 -14 -68
-63 -68 -25 0 -33 5 -41 28 -15 45 -4 57 53 57 40 0 50 -3 51 -17z m185 2 c12
-31 -5 -62 -37 -69 -45 -9 -69 8 -69 49 l0 35 50 0 c36 0 52 -4 56 -15z"></path>
<path class="node" id="node35" d="M1353 1173 c-29 -4 -33 -8 -33 -33 0 -34 19 -80 40 -97 8 -7 36 -13
61 -13 51 0 79 21 79 58 0 12 5 22 10 22 6 0 10 -7 10 -15 0 -9 7 -27 16 -40
14 -21 24 -25 69 -25 48 0 56 3 74 29 23 32 28 95 9 107 -20 12 -127 8 -153
-6 -19 -10 -30 -11 -47 -2 -28 13 -92 21 -135 15z m117 -68 c0 -41 -26 -60
-71 -50 -20 5 -31 14 -35 31 -11 43 1 54 56 54 l50 0 0 -35z m188 19 c6 -11 4
-26 -5 -44 -10 -21 -20 -27 -41 -25 -51 4 -66 20 -63 68 1 24 96 25 109 1z"></path>
<path class="node" id="node36" d="M1898 1170 c-32 -20 -19 -96 21 -127 9 -7 37 -13 62 -13 51 0 74 17
81 60 4 23 5 24 13 5 18 -44 47 -65 89 -65 59 1 96 39 96 100 0 41 -28 54 -99
45 -71 -8 -101 -9 -181 -1 -41 4 -72 3 -82 -4z m132 -58 c0 -62 -77 -82 -102
-27 -18 40 -5 55 52 55 48 0 50 -1 50 -28z m190 18 c13 -8 13 -13 0 -37 -9
-15 -28 -32 -43 -37 -23 -9 -31 -6 -52 14 -17 18 -23 32 -19 48 5 19 13 22 53
22 25 0 53 -5 61 -10z"></path>
<path class="node" id="node37" d="M1140 1001 c0 -17 -4 -33 -10 -36 -5 -3 -10 -1 -10 4 0 6 -9 11 -20
11 -16 0 -20 -7 -20 -30 0 -37 -18 -39 -57 -6 -40 33 -108 33 -145 -1 -34 -32
-62 -27 -63 11 0 36 -22 46 -34 14 -8 -22 -9 -22 -15 9 -11 46 -24 50 -32 8
-9 -52 3 -130 29 -175 24 -43 124 -151 163 -176 22 -15 26 -15 50 1 51 33 143
137 169 190 27 54 36 135 21 183 -10 32 -26 27 -26 -7z"></path>
<path class="node" id="node38" d="M1296 1014 c-17 -43 -5 -130 24 -192 30 -59 111 -152 164 -187 24
-16 28 -16 52 -1 48 32 141 132 163 175 12 23 25 64 28 91 6 50 -3 120 -15
120 -4 0 -14 -21 -22 -48 -14 -44 -17 -47 -53 -50 -30 -3 -42 2 -56 20 -15 18
-30 23 -70 25 -44 1 -54 -2 -71 -24 -17 -21 -25 -24 -54 -19 -36 7 -66 41 -66
75 0 25 -16 36 -24 15z"></path>
<path class="node" id="node39" d="M176 998 c-25 -95 12 -194 108 -289 94 -95 99 -97 144 -64 116 87
182 193 182 293 0 78 -14 98 -35 50 -8 -21 -15 -41 -15 -46 0 -5 -7 -15 -15
-22 -19 -16 -63 1 -94 36 -30 34 -101 34 -129 -1 -11 -13 -31 -30 -45 -36 -35
-16 -54 0 -68 57 -13 49 -24 56 -33 22z"></path>
<path class="node" id="node40" d="M1857 1006 c-10 -26 -8 -124 3 -144 5 -9 17 -34 26 -55 16 -36 116
-145 162 -174 28 -19 45 -9 129 75 98 98 128 177 107 281 -8 38 -20 40 -29 4
-6 -24 -8 -26 -16 -10 -15 26 -37 21 -32 -7 7 -34 -26 -42 -66 -18 -39 23
-108 21 -152 -5 -29 -17 -31 -17 -45 1 -9 14 -11 23 -3 32 16 20 -10 28 -30
10 -17 -15 -19 -15 -33 6 -13 20 -15 20 -21 4z"></path>
<path class="node" id="node41" d="M203 525 c-9 -25 5 -87 24 -106 10 -10 36 -21 58 -24 32 -6 45 -2 68
15 15 12 27 30 27 41 0 10 5 19 10 19 6 0 10 -9 10 -19 0 -11 12 -29 26 -40
67 -53 161 4 152 92 l-3 32 -69 3 c-39 2 -74 -2 -80 -8 -13 -13 -63 -13 -71 0
-3 6 -38 10 -76 10 -54 0 -71 -4 -76 -15z m144 -38 c17 -37 -1 -57 -50 -57
-32 0 -45 5 -55 21 -19 30 9 59 58 59 29 0 39 -5 47 -23z m184 7 c14 -13 16
-20 7 -39 -12 -27 -28 -32 -75 -27 -28 4 -33 8 -33 31 0 15 5 32 12 39 17 17
68 15 89 -4z"></path>
<path class="node" id="node42" d="M767 533 c-16 -16 -6 -79 17 -108 20 -25 31 -30 69 -30 48 0 87 27
87 60 0 8 5 15 10 15 6 0 10 -8 10 -18 0 -42 71 -73 121 -53 32 12 59 61 59
108 l0 33 -74 0 c-41 0 -78 -4 -81 -10 -3 -5 -19 -10 -35 -10 -16 0 -32 5 -35
10 -7 11 -138 14 -148 3z m139 -41 c7 -10 8 -26 3 -40 -7 -18 -16 -22 -53 -22
-40 0 -46 3 -52 25 -4 15 -1 32 6 40 18 21 82 19 96 -3z m184 3 c7 -8 10 -25
6 -40 -6 -22 -12 -25 -52 -25 -49 0 -61 13 -50 55 5 21 12 25 45 25 22 0 44
-6 51 -15z"></path>
<path class="node" id="node43" d="M1320 507 c0 -47 27 -96 59 -108 50 -20 121 11 121 53 0 10 5 18 10
18 6 0 10 -7 10 -16 0 -24 47 -64 74 -64 69 0 111 45 104 112 l-3 33 -69 3
c-39 2 -74 -2 -80 -8 -13 -13 -63 -13 -71 0 -3 6 -40 10 -81 10 l-74 0 0 -33z
m145 -37 c0 -35 -1 -35 -47 -38 -44 -3 -48 -1 -54 23 -9 38 11 57 60 53 40 -3
41 -4 41 -38z m185 25 c7 -8 10 -25 6 -40 -6 -22 -12 -25 -51 -25 -35 0 -47 5
-55 21 -9 16 -8 25 6 40 21 23 76 25 94 4z"></path>
<path class="node" id="node44" d="M1887 533 c-12 -12 -7 -63 8 -94 16 -31 49 -49 89 -49 31 0 74 35 79
63 3 21 4 21 15 -5 17 -42 54 -61 101 -53 54 9 75 35 75 93 l1 47 -69 3 c-39
2 -74 -2 -80 -8 -13 -13 -63 -13 -71 0 -7 11 -138 14 -148 3z m131 -35 c7 -7
12 -25 12 -40 0 -27 -2 -28 -50 -28 -45 0 -50 2 -56 25 -4 15 -1 32 6 40 15
18 71 20 88 3z m196 -7 c15 -16 15 -22 4 -40 -10 -16 -23 -21 -55 -21 -49 0
-67 20 -50 57 13 30 75 32 101 4z"></path>
<path class="node" id="node45" d="M222 368 c-19 -19 -14 -45 10 -62 30 -21 121 -21 142 0 15 14 17 14
32 0 25 -26 117 -21 149 7 27 23 27 23 7 46 -25 32 -56 22 -49 -15 4 -25 3
-26 -32 -19 -47 8 -138 8 -178 0 -29 -7 -32 -5 -35 21 -3 31 -26 42 -46 22z"></path>
<path class="node" id="node46" d="M767 373 c-17 -16 -5 -60 22 -86 24 -22 38 -27 83 -27 30 0 59 5 66
12 9 9 15 9 24 0 7 -7 36 -12 65 -12 44 0 58 5 82 28 17 15 31 34 32 42 3 34
-2 50 -16 50 -20 0 -30 -27 -16 -44 15 -18 4 -26 -35 -26 -23 0 -36 7 -48 25
-18 27 -61 34 -69 13 -4 -10 -7 -10 -18 0 -20 19 -42 14 -63 -13 -13 -18 -28
-25 -51 -25 -39 0 -50 9 -29 24 9 7 12 18 8 29 -6 17 -25 23 -37 10z"></path>
<path class="node" id="node47" d="M1336 355 c-15 -23 -15 -26 1 -45 19 -22 91 -28 110 -9 15 15 104 15
131 0 31 -17 74 -13 102 9 20 15 23 23 14 36 -20 33 -41 40 -63 20 -11 -10
-17 -24 -15 -31 8 -21 -13 -27 -38 -12 -31 20 -118 20 -140 0 -19 -17 -40 -9
-31 13 6 15 -22 43 -43 44 -7 0 -19 -11 -28 -25z"></path>
<path class="node" id="node48" d="M1905 350 c-28 -30 -29 -31 -13 -58 27 -45 59 -58 106 -44 23 7 48
20 57 29 9 9 20 12 23 7 10 -13 80 -44 100 -44 23 0 69 40 76 66 6 21 -32 74
-54 74 -16 0 -12 -28 7 -38 21 -12 10 -42 -15 -42 -10 0 -27 9 -36 19 -25 27
-136 27 -170 0 -48 -38 -81 -11 -45 35 30 38 0 34 -36 -4z"></path>
<path class="node" id="node49" d="M355 260 c-7 -12 22 -70 35 -70 11 0 39 61 33 73 -6 10 -61 9 -68 -3z"></path>
<path class="node" id="node50" d="M1484 255 c-8 -20 16 -77 30 -72 15 5 30 51 23 71 -8 20 -46 21 -53
1z"></path>
<path class="node" id="node51" d="M923 214 c-6 -16 15 -64 28 -64 12 0 37 53 32 68 -7 17 -52 15 -60
-4z"></path>
<path class="node" id="node52" d="M2045 193 c10 -41 23 -50 40 -27 25 33 19 54 -16 54 -29 0 -31 -2
-24 -27z"></path>
</g>
<g transform="translate(0.000000,300.000000) scale(0.100000,-0.100000)" fill="#FFFFFF" stroke="none">

<path class="node" id="node54" d="M246 2787 c-17 -13 -17 -15 -2 -45 13 -25 23 -32 47 -32 16 0 39 9
51 20 18 17 20 23 10 45 -9 20 -19 25 -50 25 -21 0 -46 -6 -56 -13z"></path>
<path class="node" id="node55" d="M437 2794 c-11 -12 -8 -47 7 -66 20 -27 70 -23 85 6 23 42 11 61 -39
64 -25 2 -49 0 -53 -4z"></path>
<path class="node" id="node56" d="M803 2784 c-20 -53 69 -101 96 -51 23 43 12 62 -42 65 -37 2 -49 -1
-54 -14z"></path>
<path class="node" id="node57" d="M997 2794 c-12 -12 -8 -55 7 -70 35 -34 101 0 94 48 -3 20 -10 23
-48 26 -25 2 -49 0 -53 -4z"></path>
<path class="node" id="node58" d="M1367 2794 c-11 -12 -8 -47 7 -66 16 -22 62 -23 82 -3 9 8 14 27 12
42 -3 25 -7 28 -48 31 -25 2 -49 0 -53 -4z"></path>
<path class="node" id="node59" d="M1557 2793 c-11 -11 -7 -47 7 -66 20 -26 67 -19 85 14 22 40 9 59
-42 59 -24 0 -47 -3 -50 -7z"></path>
<path class="node" id="node60" d="M1924 2785 c-4 -8 -1 -29 6 -45 23 -56 105 -32 98 27 -3 26 -7 28
-51 31 -36 2 -49 -1 -53 -13z"></path>
<path class="node" id="node61" d="M2108 2775 c-10 -22 -8 -28 10 -45 12 -11 35 -20 51 -20 24 0 34 7
47 32 15 30 15 32 -2 45 -10 7 -35 13 -56 13 -31 0 -41 -5 -50 -25z"></path>
<path class="node" id="node62" d="M335 2563 c-43 -9 -49 -13 -37 -25 15 -15 141 -19 167 -5 19 10 18
11 -10 23 -30 13 -81 16 -120 7z"></path>
<path class="node" id="node63" d="M900 2580 c-19 -11 -39 -21 -45 -24 -6 -2 -6 -8 2 -16 14 -15 137
-22 171 -9 26 10 29 27 5 35 -10 3 -30 12 -45 20 -33 18 -45 17 -88 -6z"></path>
<path class="node" id="node64" d="M1443 2574 c-13 -33 11 -49 73 -49 l59 0 3 33 3 32 -66 0 c-52 0 -67
-4 -72 -16z"></path>
<path class="node" id="node65" d="M2010 2573 c-29 -24 -31 -28 -15 -39 19 -14 151 -12 166 3 15 15 -53
63 -90 63 -17 0 -42 -11 -61 -27z"></path>
<path class="node" id="node66" d="M236 2174 c-3 -8 1 -26 10 -40 32 -48 122 -20 107 34 -5 19 -12 22
-58 22 -39 0 -54 -4 -59 -16z"></path>
<path class="node" id="node67" d="M430 2162 c0 -37 17 -52 57 -52 26 0 36 6 45 24 18 41 5 56 -52 56
-48 0 -50 -1 -50 -28z"></path>
<path class="node" id="node68" d="M804 2177 c-3 -8 0 -26 5 -40 21 -55 118 -23 104 34 -4 15 -14 19
-54 19 -32 0 -51 -5 -55 -13z"></path>
<path class="node" id="node69" d="M990 2162 c0 -37 17 -52 57 -52 26 0 36 6 45 24 18 41 5 56 -52 56
-48 0 -50 -1 -50 -28z"></path>
<path class="node" id="node70" d="M1363 2174 c-3 -8 -1 -26 5 -40 9 -18 19 -24 45 -24 40 0 57 15 57
52 0 27 -2 28 -50 28 -37 0 -52 -4 -57 -16z"></path>
<path class="node" id="node71" d="M1547 2171 c-14 -55 81 -88 105 -37 18 41 5 56 -51 56 -40 0 -50 -4
-54 -19z"></path>
<path class="node" id="node72" d="M1923 2174 c-3 -8 -1 -26 5 -40 9 -18 19 -24 45 -24 40 0 57 15 57
52 0 27 -2 28 -50 28 -37 0 -52 -4 -57 -16z"></path>
<path class="node" id="node73" d="M2107 2168 c-15 -54 77 -82 109 -33 26 40 13 55 -50 55 -47 0 -54 -3
-59 -22z"></path>
<path class="node" id="node74" d="M492 1932 c-27 -13 -38 -14 -67 -3 -28 10 -42 10 -69 0 -27 -10 -40
-10 -65 1 -45 18 -48 7 -8 -33 42 -42 72 -51 93 -29 15 15 18 14 29 -2 13 -17
15 -17 49 -1 32 15 84 71 75 79 -2 2 -19 -3 -37 -12z"></path>
<path class="node" id="node75" d="M246 1627 c-15 -11 -17 -17 -7 -35 17 -31 45 -44 75 -33 32 13 47 40
35 63 -12 22 -76 25 -103 5z"></path>
<path class="node" id="node76" d="M437 1634 c-14 -14 -7 -62 11 -69 48 -21 96 5 90 48 -2 18 -10 22
-48 25 -25 2 -49 0 -53 -4z"></path>
<path class="node" id="node77" d="M805 1630 c-11 -18 2 -54 25 -68 33 -20 75 4 75 43 0 29 -2 30 -47
33 -26 2 -49 -2 -53 -8z"></path>
<path class="node" id="node78" d="M997 1634 c-11 -11 -8 -49 5 -62 17 -17 73 -15 88 2 6 8 10 25 8 38
-3 20 -10 23 -48 26 -25 2 -49 0 -53 -4z"></path>
<path class="node" id="node79" d="M1367 1634 c-11 -11 -8 -49 5 -62 17 -17 73 -15 88 2 6 8 10 25 8 38
-3 20 -10 23 -48 26 -25 2 -49 0 -53 -4z"></path>
<path class="node" id="node80" d="M1557 1633 c-12 -11 -8 -50 6 -61 12 -10 39 -15 64 -13 21 2 44 56
30 70 -12 12 -89 15 -100 4z"></path>
<path class="node" id="node81" d="M1925 1630 c-10 -17 2 -54 22 -66 12 -7 30 -8 51 -2 30 8 33 12 30
41 -3 30 -5 32 -50 35 -26 2 -49 -2 -53 -8z"></path>
<path class="node" id="node82" d="M2111 1622 c-11 -21 1 -47 29 -62 25 -13 65 2 81 31 10 19 9 25 -7
36 -27 20 -91 17 -103 -5z"></path>
<path class="node" id="node83" d="M901 1389 c-24 -5 -47 -6 -52 -4 -4 3 -10 1 -13 -4 -8 -12 46 -51 71
-51 10 0 24 5 31 12 9 9 16 8 29 -4 15 -14 23 -15 48 -4 26 11 65 45 54 47 -2
0 -22 2 -44 4 -22 2 -49 6 -60 8 -11 3 -40 1 -64 -4z"></path>
<path class="node" id="node84" d="M1458 1412 c-27 -14 -48 -29 -48 -32 0 -10 48 -30 70 -30 10 0 22 4
25 10 4 6 13 5 24 -2 14 -9 26 -8 50 2 17 7 31 15 31 19 0 6 -95 62 -102 60
-2 0 -24 -12 -50 -27z"></path>
<path class="node" id="node85" d="M240 1120 c-8 -15 -7 -26 5 -44 30 -46 122 -11 109 42 -6 19 -13 22
-55 22 -38 0 -51 -4 -59 -20z"></path>
<path class="node" id="node86" d="M430 1112 c0 -36 28 -62 66 -62 23 0 32 6 40 29 17 44 2 61 -56 61
-48 0 -50 -1 -50 -28z"></path>
<path class="node" id="node87" d="M804 1125 c-3 -8 -2 -27 3 -42 8 -23 16 -28 41 -28 49 0 67 18 63 68
-1 14 -11 17 -51 17 -35 0 -52 -4 -56 -15z"></path>
<path class="node" id="node88" d="M990 1105 c0 -41 24 -58 69 -49 22 5 33 14 37 30 11 43 -1 54 -56 54
l-50 0 0 -35z"></path>
<path class="node" id="node89" d="M1364 1125 c-12 -30 5 -63 35 -70 45 -10 71 9 71 50 l0 35 -50 0
c-36 0 -52 -4 -56 -15z"></path>
<path class="node" id="node90" d="M1549 1123 c-3 -48 12 -64 63 -68 21 -2 31 4 41 25 22 42 6 60 -53
60 -41 0 -50 -3 -51 -17z"></path>
<path class="node" id="node91" d="M1923 1124 c-9 -24 14 -63 42 -70 34 -8 65 19 65 58 0 27 -2 28 -50
28 -37 0 -52 -4 -57 -16z"></path>
<path class="node" id="node92" d="M2106 1118 c-4 -16 2 -30 19 -48 21 -20 29 -23 52 -14 15 5 34 22 43
37 13 24 13 29 0 37 -8 5 -36 10 -61 10 -40 0 -48 -3 -53 -22z"></path>
<path class="node" id="node93" d="M246 491 c-15 -16 -15 -22 -4 -40 10 -16 23 -21 55 -21 49 0 67 20
50 57 -13 30 -75 32 -101 4z"></path>
<path class="node" id="node94" d="M442 498 c-7 -7 -12 -24 -12 -39 0 -23 5 -27 33 -31 47 -5 63 0 75
27 9 19 7 26 -7 39 -21 19 -72 21 -89 4z"></path>
<path class="node" id="node95" d="M810 495 c-7 -8 -10 -25 -6 -40 6 -22 12 -25 52 -25 37 0 46 4 53 22
13 35 -7 58 -50 58 -20 0 -42 -7 -49 -15z"></path>
<path class="node" id="node96" d="M994 485 c-11 -42 1 -55 50 -55 40 0 46 3 52 25 9 36 -11 55 -57 55
-33 0 -40 -4 -45 -25z"></path>
<path class="node" id="node97" d="M1371 496 c-8 -9 -11 -26 -7 -41 6 -24 10 -26 54 -23 46 3 47 3 47
38 0 34 -1 35 -41 38 -27 2 -45 -2 -53 -12z"></path>
<path class="node" id="node98" d="M1556 491 c-14 -15 -15 -24 -6 -40 8 -16 20 -21 55 -21 39 0 45 3 51
25 4 15 1 32 -6 40 -18 21 -73 19 -94 -4z"></path>
<path class="node" id="node99" d="M1930 495 c-7 -8 -10 -25 -6 -40 6 -23 11 -25 56 -25 48 0 50 1 50
28 0 15 -5 33 -12 40 -17 17 -73 15 -88 -3z"></path>
<path class="node" id="node100" d="M2113 487 c-17 -37 1 -57 50 -57 32 0 45 5 55 21 19 30 -9 59 -58 59
-29 0 -39 -5 -47 -23z"></path>
</g>
</svg>