<!--?xml version="1.0" standalone="no"?--><svg version="1.0" xmlns="http://www.w3.org/2000/svg" width="287.000000pt" height="300.000000pt" viewBox="0 0 287.000000 300.000000" preserveAspectRatio="xMidYMid meet">
<metadata>
  <rdf:rdf xmlns:rdf="http://www.w3.org/1999/02/22-rdf-syntax-ns#" xmlns:rdfs="http://www.w3.org/2000/01/rdf-schema#" xmlns:dc="http://purl.org/dc/elements/1.1/">
    <rdf:description dc:title="Gas Mask balck icon" dc:publisher="Hiox" dc:date="2015-04-09" dc:format="image/svg+xml" dc:language="en">
      <dc:creator>
        <rdf:bag>
          <rdf:li>svgimages.com</rdf:li>
        </rdf:bag>
      </dc:creator>
    </rdf:description>
  </rdf:rdf>
</metadata>
<g transform="translate(0.000000,300.000000) scale(0.100000,-0.100000)" fill="#060606" stroke="none">
<path class="node" id="node1" d="M1281 2654 c-213 -46 -421 -234 -490 -440 -55 -166 -50 -319 20 -614
29 -120 110 -359 158 -467 23 -50 41 -95 41 -101 0 -11 -39 -24 -51 -17 -4 3
-26 52 -49 111 -24 58 -48 108 -55 110 -18 7 -276 -99 -289 -118 -8 -14 21
-94 138 -385 81 -202 154 -374 162 -382 11 -13 32 -7 146 39 73 29 139 59 147
66 13 11 9 28 -28 121 -40 100 -41 108 -25 120 10 7 24 13 31 13 19 0 16 15
-12 56 -39 58 -58 136 -53 219 9 135 85 248 207 307 59 29 75 33 156 33 81 0
97 -4 156 -33 122 -59 198 -172 207 -307 5 -83 -14 -161 -53 -219 -28 -41 -31
-56 -12 -56 7 0 21 -6 31 -13 16 -12 15 -20 -25 -120 -37 -93 -41 -110 -28
-121 8 -7 74 -37 147 -66 113 -45 136 -51 147 -39 7 8 80 180 161 382 117 291
146 371 138 385 -13 19 -271 125 -289 118 -7 -2 -31 -52 -55 -110 -23 -59 -45
-108 -49 -111 -12 -7 -51 6 -51 17 0 6 18 50 40 99 121 269 213 634 214 849 1
207 -67 364 -219 508 -159 152 -392 215 -614 166z m-63 -461 c152 -94 154
-302 4 -407 -54 -38 -149 -48 -217 -22 -89 35 -155 132 -155 230 0 86 76 190
161 223 56 21 152 10 207 -24z m633 25 c87 -25 169 -134 169 -224 0 -62 -27
-129 -71 -173 -54 -54 -111 -74 -193 -69 -77 5 -132 37 -181 107 -26 37 -30
53 -33 119 -3 66 0 84 20 121 55 104 176 153 289 119z"></path>
<path class="node" id="node2" d="M1024 2141 c-104 -47 -131 -173 -57 -262 50 -59 132 -75 203 -39 54
27 83 72 88 136 6 71 -29 133 -91 163 -53 26 -90 26 -143 2z"></path>
<path class="node" id="node3" d="M1729 2150 c-77 -23 -124 -92 -117 -174 5 -64 34 -109 88 -136 98
-50 211 2 240 110 33 122 -89 237 -211 200z"></path>
<path class="node" id="node4" d="M1365 1271 c-153 -40 -251 -172 -243 -326 14 -272 343 -400 535 -208
155 155 108 418 -90 511 -53 25 -153 36 -202 23z m152 -158 c98 -46 120 -194
41 -270 -75 -72 -171 -72 -246 0 -78 76 -57 222 39 270 44 21 121 22 166 0z"></path>
</g>
<g transform="translate(0.000000,300.000000) scale(0.100000,-0.100000)" fill="#A3A3A3" stroke="none">

<path class="node" id="node6" d="M1011 2217 c-85 -33 -161 -137 -161 -223 0 -98 66 -195 155 -230 68
-26 163 -16 217 22 194 136 118 426 -114 440 -36 2 -77 -2 -97 -9z m156 -78
c122 -59 124 -237 3 -299 -71 -36 -153 -20 -203 39 -74 89 -47 215 57 262 53
24 90 24 143 -2z"></path>
<path class="node" id="node7" d="M1696 2215 c-54 -19 -106 -64 -134 -116 -20 -37 -23 -55 -20 -121 3
-66 7 -82 33 -119 49 -70 104 -102 181 -107 82 -5 139 15 193 69 71 71 89 174
47 265 -54 116 -182 171 -300 129z m150 -74 c104 -47 131 -173 57 -262 -50
-59 -132 -75 -203 -39 -54 27 -83 72 -88 136 -11 130 115 219 234 165z"></path>
<path class="node" id="node8" d="M1351 1113 c-96 -48 -117 -194 -39 -270 75 -72 171 -72 246 0 79 76
57 224 -41 270 -45 22 -122 21 -166 0z"></path>
</g>
</svg>