<!--?xml version="1.0" standalone="no"?-->

<svg version="1.0" xmlns="http://www.w3.org/2000/svg" width="300.000000pt" height="300.000000pt" viewBox="0 0 300.000000 300.000000" preserveAspectRatio="xMidYMid meet">
<g transform="translate(0.000000,300.000000) scale(0.100000,-0.100000)" fill="#1E1E1C" stroke="none">
<path d="M1227 2759 c-21 -11 -57 -41 -80 -67 -132 -147 -198 -192 -278 -192
-81 1 -116 56 -94 145 9 34 24 59 48 82 31 28 33 33 17 38 -36 11 -130 -47
-157 -98 -33 -65 -53 -144 -53 -217 -1 -91 -16 -129 -98 -237 -68 -90 -97
-133 -88 -133 3 0 21 7 40 16 44 22 77 13 100 -27 16 -26 18 -43 12 -103 -6
-68 -36 -177 -55 -200 -18 -22 -99 -182 -111 -219 -6 -21 -9 -45 -6 -54 5 -12
15 -3 42 38 41 63 113 139 130 139 27 0 1 -79 -75 -230 -82 -163 -115 -265
-109 -341 l3 -44 22 46 c30 60 79 107 95 91 26 -26 18 -183 -13 -242 -4 -8
-19 -41 -33 -72 -14 -32 -41 -83 -62 -113 -20 -31 -34 -59 -30 -62 20 -20 176
101 176 137 0 5 5 10 10 10 6 0 10 -47 10 -120 0 -126 15 -187 61 -249 40 -55
107 -75 81 -24 -17 32 -24 101 -12 122 16 30 52 26 101 -12 76 -58 84 -75 87
-193 2 -57 7 -104 10 -104 4 0 23 16 42 36 52 54 127 94 177 94 38 0 44 -4 59
-32 12 -24 15 -45 10 -90 -5 -37 -3 -58 3 -58 18 0 83 63 112 108 33 53 31 55
99 -103 l21 -50 22 44 c12 24 27 43 32 43 6 -1 18 -17 28 -36 11 -20 23 -36
27 -36 4 0 15 17 23 38 33 81 61 142 67 142 3 0 14 -16 24 -35 21 -38 98 -115
116 -115 7 0 9 22 5 63 -8 84 6 111 62 115 52 4 109 -24 174 -85 l49 -46 0 81
c0 92 20 151 66 193 73 66 116 76 136 33 12 -25 10 -35 -19 -136 -9 -32 20
-19 67 30 65 68 80 117 80 265 l0 120 55 -60 c49 -55 128 -104 142 -89 3 3
-11 30 -31 60 -53 80 -105 196 -117 263 -12 62 -6 150 11 167 13 13 62 -33 86
-84 25 -52 37 -40 29 29 -11 95 -33 158 -111 307 -56 109 -74 153 -74 184 0
22 4 40 9 40 14 0 96 -93 122 -138 13 -23 30 -44 38 -47 26 -10 2 77 -47 165
-78 142 -100 192 -111 254 -29 160 13 236 105 192 19 -9 37 -16 40 -16 7 0
-24 46 -87 130 -31 41 -62 85 -68 98 -24 46 -41 118 -41 178 0 124 -51 224
-135 263 -63 29 -88 21 -53 -17 66 -70 79 -155 33 -205 -21 -22 -35 -27 -71
-27 -76 0 -129 32 -239 145 -111 114 -143 135 -209 135 -56 0 -80 -9 -137 -52
l-45 -35 -30 24 c-79 65 -164 80 -237 42z m480 -310 c56 -27 133 -110 133
-144 0 -30 -49 -85 -76 -85 -32 0 -159 42 -201 66 -54 31 -80 30 -150 -4 -32
-16 -86 -37 -120 -47 -73 -21 -114 -11 -133 34 -17 42 -3 75 51 126 74 69 90
73 284 74 149 0 175 -3 212 -20z" id="node1" class="node"></path>
</g>
<g transform="translate(0.000000,300.000000) scale(0.100000,-0.100000)" fill="#A2A2A2" stroke="none">


</g>
</svg>