<?xml version="1.0" encoding="utf-8"?>
<!DOCTYPE svg PUBLIC "-//W3C//DTD SVG 1.1//EN" "http://www.w3.org/Graphics/SVG/1.1/DTD/svg11.dtd">
<svg version="1.1" id="Layer_1" xmlns="http://www.w3.org/2000/svg" xmlns:xlink="http://www.w3.org/1999/xlink" x="0px" y="0px"
	 viewBox="0 0 1072.6 1917.396" enable-background="new 0 0 1072.6 1917.396" xml:space="preserve">
<g>
	<path d="M548.0215,716.5485c-54.683-0.4692-109.2195-3.5395-163.536-9.9353c-34.8846-4.1078-69.7574-8.3763-104.5444-13.2261
		c-18.8335-2.6255-36.6137-9.7598-54.8612-14.8931c-25.1319-7.07-50.443-13.4645-74.5088-23.9517
		c-41.5556-18.1086-75.4066-46.2979-104.2818-80.5079c-23.1024-27.3707-25.3643-61.3738-8.1404-92.7851
		c3.7724-6.8798,8.3188-13.235,12.9088-19.5878c14.1385-19.5681,34.765-27.2244,57.2799-31.019
		c27.3144-4.6035,54.4659-3.0052,81.2014,4.1563c4.2839,1.1475,5.3325,0.171,6.1405-3.836
		c5.4836-27.194,7.6339-54.7332,8.9061-82.3702c1.4096-30.6217,1.43-61.3141,4.0842-91.8693
		c3.8864-44.7401,16.3861-86.2863,46.6328-120.8828c23.9918-27.4421,54.5035-44.9789,88.2889-57.3317
		c37.8869-13.8524,77.1727-21.5358,117.1459-26.1343c34.5016-3.969,69.1102-5.1811,103.7891-3.8928
		c56.3663,2.094,111.7509,9.8873,164.8474,29.9605c26.1993,9.9047,50.8055,22.739,71.403,42.1065
		c25.4265,23.9081,40.2203,53.8952,48.8549,87.2719c7.1656,27.6981,10.0634,56.0054,11.9371,84.4432
		c2.7929,42.3895,3.722,84.8841,7.1274,127.2413c0.8842,10.9987,0.7661,10.8847,11.8674,10.2947
		c10.1907-0.5416,20.0181-3.5167,30.1245-4.3714c51.2483-4.3346,91.8425,13.7412,121.645,56.4559
		c17.3004,24.7963,16.4192,50.2231,5.6155,76.2547c-12.8643,30.9965-35.5648,53.964-63.0167,72.5087
		c-30.8147,20.8165-64.979,34.2167-100.3738,44.762c-42.5264,12.6699-86.0562,20.6119-129.8873,27.0293
		c-33.4513,4.8977-66.9711,9.177-100.7374,11.387C611.9905,715.9167,580.0281,716.8331,548.0215,716.5485z"/>
	<path d="M607.8871,1618.6085c9.1547-3.2528,16.4382-8.9816,23.2548-15.3717c9.2841-8.7031,16.7265-18.9812,24.4824-28.9854
		c13.6129-17.559,27.758-34.5397,46.783-46.7292c29.4355-18.8602,62.0464-25.0548,96.3413-24.1843
		c9.1641,0.2327,16.1414,5.7585,22.0718,12.3918c8.6907,9.7207,14.2466,21.2529,18.7418,33.3279
		c10.6461,28.5974,16.0905,58.337,18.9315,88.5955c3.0915,32.9261,3.3398,65.8923,0.0316,98.8134
		c-3.0872,30.722-8.3245,61.0299-19.8043,89.9097c-4.9526,12.459-11.2513,24.1315-21.1728,33.5175
		c-6.8845,6.5128-14.8768,9.6871-24.4212,9.4849c-33.2053-0.7041-64.8313-6.8796-92.9506-25.859
		c-15.6773-10.5815-28.1887-24.3119-39.6694-39.1377c-9.381-12.1144-18.4742-24.4852-29.6493-35.0846
		c-6.3133-5.9882-13.1301-11.2552-21.0522-15.0358c-2.6489-1.2638-4.2629-1.4552-5.9805,1.5105
		c-2.5189,4.3495-6.693,6.2373-11.7704,6.2332c-36.493-0.0298-72.986-0.0302-109.4789-0.0132
		c-4.6578,0.0021-8.7101-1.5458-11.149-5.4839c-1.9223-3.104-3.676-2.2993-6.0823-1.0511
		c-10.6906,5.5446-19.489,13.4235-27.0958,22.5649c-10.6523,12.8015-20.6733,26.1315-31.419,38.8513
		c-25.6635,30.3779-58.6674,46.8409-98.1009,50.6765c-7.2924,0.7094-14.608,1.1832-21.9155,1.7319
		c-13.8345,1.0388-24.5018-4.3433-32.5788-15.5815c-12.1541-16.9109-19.5183-35.9056-24.6271-55.8578
		c-10.5347-41.1429-13.3896-83.1064-12.5233-125.3796c0.7014-34.2235,4.2177-68.1318,13.4862-101.2356
		c4.8652-17.3765,10.9738-34.233,21.291-49.2653c2.8439-4.1437,6.0481-7.9725,9.9057-11.197
		c5.9228-4.9506,12.4995-7.7198,20.514-7.6913c26.2719,0.0936,51.7164,4.0977,75.9136,14.7062
		c22.7573,9.9772,39.9952,26.6611,55.4299,45.5684c8.9548,10.9696,16.8845,22.7451,26.3218,33.3323
		c6.9205,7.7635,14.5992,14.5905,23.7925,19.603c2.3513,1.282,3.4247,1.572,4.072-1.8865
		c1.8092-9.6677,7.2279-13.7832,17.1061-13.7849c34.4934-0.006,68.9868-0.0062,103.4803-0.0024
		c12.1702,0.0012,16.5635,3.6786,18.9706,15.8328C607.494,1617.0791,607.6694,1617.7063,607.8871,1618.6085z"/>
	<path d="M755.6486,1405.7411c-48.0471-0.7833-95.2927-6.7467-140.9772-22.358c-20.8995-7.1418-40.739-16.4131-58.2122-30.2535
		c-4.1844-3.3146-9.3121-1.8564-14.004-1.3314c-5.1538,0.5768-9.999,2.5394-14.5044,5.1302
		c-3.6053,2.0731-7.442,3.9553-10.5531,6.6431c-23.3449,20.168-51.7151,28.1968-81.0757,33.7024
		c-64.2505,12.048-128.5132,12.2965-192.6481-0.8104c-29.1807-5.9634-57.2819-15.0643-82.7403-31.059
		c-5.9352-3.7289-11.5215-7.9279-16.7325-12.6301c-30.0118-27.082-35.2077-65.2518-13.2104-99.2728
		c12.0087-18.5725,28.1944-31.425,50.778-34.5054c13.0646-1.782,25.057,1.6312,36.3172,8.2446
		c2.4727,1.452,2.2056,2.8766,0.9915,4.8148c-2.1535,3.4382-5.46,5.2372-9.1276,6.5927
		c-6.6034,2.4407-13.5789,3.2606-20.4034,4.7188c-22.2061,4.7439-29.1218,16.4038-22.5179,38.1782
		c5.5504,18.3009,20.902,27.1454,41.9664,24.5046c24.1494-3.0276,45.5384-13.219,66.3257-25.0613
		c23.7701-13.5414,43.9124-31.8419,64.6506-49.3561c21.7812-18.3948,43.7108-36.5828,69.2628-49.7158
		c21.5836-11.0933,44.2963-17.2035,68.7788-15.5033c20.6709,1.4354,39.7053,8.1438,57.5795,18.239
		c4.0658,2.2965,7.0081,2.5387,11.2816,0.3375c27.7003-14.2676,56.9346-21.2871,88.2733-17.5234
		c24.2125,2.9077,46.3434,11.7257,67.3896,23.6221c26.5115,14.9856,50.0576,34.1146,73.9104,52.8358
		c17.9519,14.0898,36.0393,28.0153,54.3159,41.6802c11.2399,8.4037,23.3442,15.4043,37.0182,19.2794
		c18.7988,5.3275,35.3199,1.1943,49.2643-12.3412c5.9019-5.7288,12.4467-11.3065,14.0791-20.0637
		c2.4879-13.3469-2.8187-21.9231-15.8058-25.9111c-8.3085-2.5513-17.0066-3.1587-25.4442-5.0724
		c-3.5822-0.8125-7.0283-1.9613-10.4012-3.4401c-3.226-1.4143-3.6281-2.9861-1.6365-6.0078
		c8.4767-12.8611,22.7023-17.7717,39.1603-13.2423c29.9701,8.2482,59.2,43.2156,61.0918,74.2375
		c1.2341,20.2363-6.0856,37.901-19.4081,53.0417c-15.1288,17.1934-34.4932,28.0609-55.4186,36.4419
		c-29.6119,11.86-60.6097,17.7274-92.1971,20.9412C792.642,1405.3423,774.1655,1405.9484,755.6486,1405.7411z"/>
	<path d="M269.8655,782.8011c52.5345,1.7274,104.5451,8.0258,155.9524,19.094c36.4969,7.8579,73.0718,15.1295,110.6059,15.4934
		c35.1257,0.3405,69.7612-4.3561,104.2597-10.3875c40.4958-7.0797,80.7332-15.6311,121.4987-21.1777
		c36.3666-4.9479,72.5991-4.8961,109.0598,0.0826c36.3674,4.9661,72.1562,12.2099,107.5489,21.7732
		c6.8746,1.8577,14.1394,2.2214,21.1162,3.7628c9.7986,2.1649,13.2985,6.8126,12.1387,16.7617
		c-1.0123,8.6867-0.7732,17.2491,0.0236,25.9081c0.674,7.3234-0.8049,13.3917-8.5853,17.2878
		c-8.5919,4.3024-13.7213,12.4304-17.9457,20.8975c-8.1655,16.3661-12.0524,34.1566-16.9592,51.5973
		c-4.5046,16.0106-8.5028,32.1701-14.2004,47.8232c-15.795,43.3943-46.0686,72.7258-89.2775,87.4282
		c-57.3326,19.5082-114.4514,17.0043-169.9921-7.6296c-41.9041-18.5857-69.0089-51.6329-87.6003-92.5692
		c-7.8641-17.316-13.575-35.4111-19.907-53.2853c-3.1815-8.981-6.9548-17.6498-12.7048-25.3454
		c-5.1825-6.936-11.7229-11.0199-20.7028-11.1254c-8.4816-0.0995-16.9323-1.1871-25.4366,0.1155
		c-6.9031,1.0574-12.0597,4.3518-15.6788,10.3049c-5.4206,8.9163-9.0446,18.6177-11.4885,28.6331
		c-8.9237,36.5696-26.137,68.8303-49.1651,98.3893c-26.3827,33.865-60.4151,54.9822-102.6491,62.0281
		c-46.0753,7.6866-91.6044,4.9832-136.0779-10.1676c-8.2045-2.795-16.0305-6.4935-23.7859-10.3552
		c-20.5111-10.2133-35.0508-25.793-44.3312-46.8575c-15.121-34.3217-28.8799-69.0877-37.8681-105.5771
		c-3.4394-13.963-9.9717-25.8879-20.6906-35.7168c-8.38-7.6843-16.0108-16.193-18.0347-28.0737
		c-1.3802-8.1024-0.88-16.299-0.5831-24.4417c0.1336-3.6633,0.3855-7.3314,0.09-10.9678c-0.2885-3.5497,1.0308-5.0991,4.5546-5.5917
		c28.2167-3.9449,55.8589-10.868,83.7903-16.2988c28.1335-5.4702,56.3974-10.0756,85.0416-11.7283
		C251.1798,782.3489,260.5357,782.8011,269.8655,782.8011z M782.0339,802.6354c-33.298,0.4229-62.4651,2.7032-91.0939,9.7976
		c-20.8975,5.1787-41.45,11.2814-59.7828,23.0797c-15.5231,9.99-26.616,23.1974-29.1599,42.0976
		c-1.5032,11.1683-0.5573,22.3584,2.2538,33.2272c9.1786,35.4888,24.0269,68.5287,45.8495,97.9683
		c20.4443,27.58,47.575,46.4575,80.9309,55.4229c41.2719,11.093,82.6959,10.7421,123.8924-0.5101
		c36.3957-9.9409,61.447-32.6934,75.0356-67.9951c4.0111-10.4205,7.2325-21.0757,10.1893-31.8271
		c8.1134-29.5025,13.9169-59.3232,12.4694-90.1429c-0.8558-18.2228-8.9268-32.4562-23.9094-42.7863
		c-9.2871-6.4033-19.5742-10.7039-30.4095-13.5463C858.9145,807.0892,818.6427,803.8281,782.0339,802.6354z M321.0818,802.6871
		c-33.3933,1.2347-55.6744,2.5522-77.8867,4.8721c-21.214,2.2158-42.3024,5.0444-62.5741,12.1735
		c-33.0102,11.6089-46.3721,30.3199-46.0128,65.2279c0.4156,40.3774,10.3676,78.7589,25.5924,115.8206
		c13.7153,33.387,38.912,54.1526,73.5206,63.5889c30.9359,8.4351,62.3977,10.2007,94.1193,5.9819
		c37.7902-5.026,70.8685-19.9938,97.9008-47.4421c12.9219-13.1209,22.205-28.6091,30.3785-44.9072
		c12.4071-24.7396,24.4634-49.686,28.8965-77.3062c4.3958-27.387-4.4412-49.5388-28.2053-64.9647
		c-6.1617-3.9998-12.5852-7.5095-19.3771-10.2979C396.5941,808.6677,353.9509,802.1378,321.0818,802.6871z"/>
</g>
</svg>
