<!--?xml version="1.0" standalone="no"?-->

<svg version="1.0" xmlns="http://www.w3.org/2000/svg" width="288.000000pt" height="300.000000pt" viewBox="0 0 288.000000 300.000000" preserveAspectRatio="xMidYMid meet">
<g transform="translate(0.000000,300.000000) scale(0.100000,-0.100000)" fill="#070707" stroke="none">
<path class="node" id="node1" d="M1330 2595 c-212 -39 -410 -194 -502 -396 -44 -97 -61 -187 -54 -296
18 -308 18 -457 -3 -645 -12 -103 -21 -208 -21 -235 0 -135 159 -315 339 -383
l51 -20 1 428 c1 235 1 438 1 452 2 66 -1 67 -40 22 -33 -39 -41 -43 -67 -36
-64 16 -167 158 -182 249 -4 28 -2 32 29 42 18 7 67 24 108 38 103 37 189 39
254 6 87 -45 142 -129 156 -240 10 -71 13 -89 32 -166 l12 -50 12 50 c7 28 18
68 23 90 6 22 11 58 11 81 0 48 47 148 87 186 41 38 99 68 147 74 47 7 178
-23 252 -56 24 -11 48 -20 55 -20 17 0 3 -65 -28 -128 -44 -87 -119 -162 -163
-162 -6 0 -24 28 -40 63 l-29 62 -1 -497 0 -496 38 10 c118 32 239 132 294
245 30 62 33 76 33 158 -1 50 -7 173 -14 275 -9 127 -10 263 -6 435 7 238 6
255 -14 335 -36 137 -90 231 -195 335 -107 106 -211 165 -338 190 -92 18 -138
18 -238 0z"></path>
</g>
<g transform="translate(0.000000,300.000000) scale(0.100000,-0.100000)" fill="#A9A9A9" stroke="none">

</g>
</svg>